<?xml version="1.0" encoding="UTF-8"?>
<svg width="460px" height="140px" viewBox="0 0 460 140" version="1.1" xmlns="http://www.w3.org/2000/svg">
    <!-- Generator: Sketch 52.3 (67297) - http://www.bohemiancoding.com/sketch -->
    <title>Ludwig full neg</title>
    <desc>Created with Sketch.</desc>
    <g id="Page-3" stroke="none" stroke-width="1" fill="none" fill-rule="evenodd">
        <g id="Ludwig-full-neg" fill="#FFFFFF" fill-rule="nonzero">
            <path d="M60,60 L60,80 L120,80 L120,60 L60,60 Z M0,0 L460,0 L460,140 L0,140 L0,0 Z M20,20 L20,100 L40,100 L40,20 L20,20 Z M20,100 L20,120 L120,120 L120,100 L20,100 Z M160,100 L160,120 L180,120 L180,100 L160,100 Z M160,20 L160,40 L180,40 L180,20 L160,20 Z M60,20 L60,60 L80,60 L80,20 L60,20 Z M100,20 L100,60 L120,60 L120,20 L100,20 Z M140,20 L140,120 L160,120 L160,20 L140,20 Z M180,40 L180,100 L200,100 L200,40 L180,40 Z M220,20 L220,100 L240,100 L240,20 L220,20 Z M260,20 L260,100 L280,100 L280,20 L260,20 Z M300,20 L300,100 L320,100 L320,20 L300,20 Z M340,20 L340,120 L360,120 L360,20 L340,20 Z M380,20 L380,120 L400,120 L400,20 L380,20 Z M400,100 L400,120 L440,120 L440,100 L400,100 Z M410,60 L410,80 L440,80 L440,60 L410,60 Z M420,80 L420,100 L440,100 L440,80 L420,80 Z M400,20 L400,40 L440,40 L440,20 L400,20 Z M220,100 L220,120 L320,120 L320,100 L220,100 Z M180,120 L188.693359,119.856445 L200,108.209961 L200,100 L180,100 L180,120 Z M180,20 L180,40 L200,40 L200,31.7900391 L188.693359,20.1435547 L180,20 Z"
                  id="Combined-Shape"></path>
        </g>
    </g>
</svg>